<mxfile host="app.diagrams.net" modified="2021-01-28T13:15:39.177Z" agent="5.0 (Windows NT 10.0; Win64; x64) AppleWebKit/537.36 (KHTML, like Gecko) Chrome/88.0.4324.104 Safari/537.36" etag="5jELdtjzeZ77LgFjOwR_" version="14.2.7" type="github">
  <diagram name="Page-1" id="2ca16b54-16f6-2749-3443-fa8db7711227">
    <mxGraphModel dx="1355" dy="125" grid="1" gridSize="10" guides="1" tooltips="1" connect="1" arrows="1" fold="1" page="1" pageScale="1" pageWidth="1100" pageHeight="850" background="#ffffff" math="0" shadow="0">
      <root>
        <mxCell id="0" />
        <mxCell id="1" parent="0" />
        <mxCell id="2ed32ef02a7f4228-1" value="&lt;div style=&quot;box-sizing: border-box ; width: 100% ; background: #e4e4e4 ; padding: 2px&quot;&gt;User&lt;/div&gt;&lt;table style=&quot;width: 100% ; font-size: 1em&quot; cellpadding=&quot;2&quot; cellspacing=&quot;0&quot;&gt;&lt;tbody&gt;&lt;tr&gt;&lt;td&gt;_id&lt;/td&gt;&lt;td&gt;UniqueId&lt;br&gt;&lt;/td&gt;&lt;/tr&gt;&lt;tr&gt;&lt;td&gt;username&lt;/td&gt;&lt;td&gt;String&lt;/td&gt;&lt;/tr&gt;&lt;tr&gt;&lt;td&gt;displayName&lt;/td&gt;&lt;td&gt;String&lt;/td&gt;&lt;/tr&gt;&lt;tr&gt;&lt;td&gt;email&lt;/td&gt;&lt;td&gt;String&lt;/td&gt;&lt;/tr&gt;&lt;tr&gt;&lt;td&gt;password&lt;/td&gt;&lt;td&gt;String&lt;/td&gt;&lt;/tr&gt;&lt;tr&gt;&lt;td&gt;photoUrl&lt;/td&gt;&lt;td&gt;String&lt;/td&gt;&lt;/tr&gt;&lt;tr&gt;&lt;td&gt;phoneNumber&lt;/td&gt;&lt;td&gt;Number&lt;/td&gt;&lt;/tr&gt;&lt;tr&gt;&lt;td&gt;isTeacher&lt;/td&gt;&lt;td&gt;Boolean&lt;/td&gt;&lt;/tr&gt;&lt;tr&gt;&lt;td&gt;courseId&lt;/td&gt;&lt;td&gt;Array&lt;/td&gt;&lt;/tr&gt;&lt;/tbody&gt;&lt;/table&gt;" style="verticalAlign=top;align=left;overflow=fill;html=1;rounded=0;shadow=0;comic=0;labelBackgroundColor=none;strokeWidth=1;fontFamily=Verdana;fontSize=12" parent="1" vertex="1">
          <mxGeometry x="-400" y="40" width="200" height="200" as="geometry" />
        </mxCell>
        <mxCell id="2ed32ef02a7f4228-5" value="&lt;div style=&quot;box-sizing: border-box ; width: 100% ; background: #e4e4e4 ; padding: 2px&quot;&gt;Course&lt;/div&gt;&lt;table style=&quot;width: 100% ; font-size: 1em&quot; cellpadding=&quot;2&quot; cellspacing=&quot;0&quot;&gt;&lt;tbody&gt;&lt;tr&gt;&lt;td&gt;_id&lt;/td&gt;&lt;td&gt;uniqueId&lt;/td&gt;&lt;/tr&gt;&lt;tr&gt;&lt;td&gt;courseName&lt;/td&gt;&lt;td&gt;String&lt;/td&gt;&lt;/tr&gt;&lt;tr&gt;&lt;td&gt;teacherId&lt;/td&gt;&lt;td&gt;Teacher Id&lt;/td&gt;&lt;/tr&gt;&lt;tr&gt;&lt;td&gt;subject&lt;/td&gt;&lt;td&gt;String&lt;/td&gt;&lt;/tr&gt;&lt;tr&gt;&lt;td&gt;bannerImg&lt;/td&gt;&lt;td&gt;String&lt;/td&gt;&lt;/tr&gt;&lt;tr&gt;&lt;td&gt;limit&lt;/td&gt;&lt;td&gt;Number&lt;/td&gt;&lt;/tr&gt;&lt;tr&gt;&lt;td&gt;students&lt;/td&gt;&lt;td&gt;Array User Id&lt;/td&gt;&lt;/tr&gt;&lt;tr&gt;&lt;td&gt;createdAt&lt;/td&gt;&lt;td&gt;Date&lt;/td&gt;&lt;/tr&gt;&lt;/tbody&gt;&lt;/table&gt;" style="verticalAlign=top;align=left;overflow=fill;html=1;rounded=0;shadow=0;comic=0;labelBackgroundColor=none;strokeWidth=1;fontFamily=Verdana;fontSize=12" parent="1" vertex="1">
          <mxGeometry x="240" y="40" width="200" height="200" as="geometry" />
        </mxCell>
        <mxCell id="2ed32ef02a7f4228-12" value="&lt;div style=&quot;box-sizing: border-box ; width: 100% ; background: #e4e4e4 ; padding: 2px&quot;&gt;Feedback&lt;/div&gt;&lt;table style=&quot;width: 100% ; font-size: 1em&quot; cellpadding=&quot;2&quot; cellspacing=&quot;0&quot;&gt;&lt;tbody&gt;&lt;tr&gt;&lt;td&gt;_id&lt;/td&gt;&lt;td&gt;uniqueId&lt;/td&gt;&lt;/tr&gt;&lt;tr&gt;&lt;td&gt;sender&lt;/td&gt;&lt;td&gt;User Id&lt;/td&gt;&lt;/tr&gt;&lt;tr&gt;&lt;td&gt;rate&lt;/td&gt;&lt;td&gt;number&lt;/td&gt;&lt;/tr&gt;&lt;tr&gt;&lt;td&gt;content&lt;/td&gt;&lt;td&gt;String&lt;br&gt;&lt;/td&gt;&lt;/tr&gt;&lt;tr&gt;&lt;td&gt;courseId&lt;/td&gt;&lt;td&gt;Course Id&lt;br&gt;&lt;/td&gt;&lt;/tr&gt;&lt;tr&gt;&lt;td&gt;createAt&lt;/td&gt;&lt;td&gt;Date&lt;/td&gt;&lt;/tr&gt;&lt;/tbody&gt;&lt;/table&gt;" style="verticalAlign=top;align=left;overflow=fill;html=1;rounded=0;shadow=0;comic=0;labelBackgroundColor=none;strokeWidth=1;fontFamily=Verdana;fontSize=12" parent="1" vertex="1">
          <mxGeometry x="560" y="40" width="200" height="200" as="geometry" />
        </mxCell>
        <mxCell id="3plGPukhQeNnbeva1e-n-9" value="&lt;div style=&quot;box-sizing: border-box ; width: 100% ; background: #e4e4e4 ; padding: 2px&quot;&gt;Teacher&lt;/div&gt;&lt;table style=&quot;width: 100% ; font-size: 1em&quot; cellpadding=&quot;2&quot; cellspacing=&quot;0&quot;&gt;&lt;tbody&gt;&lt;tr&gt;&lt;td&gt;_id&lt;/td&gt;&lt;td&gt;uniqueId&lt;/td&gt;&lt;/tr&gt;&lt;tr&gt;&lt;td&gt;username&lt;/td&gt;&lt;td&gt;String&lt;/td&gt;&lt;/tr&gt;&lt;tr&gt;&lt;td&gt;userID&lt;/td&gt;&lt;td&gt;User_Id&lt;/td&gt;&lt;/tr&gt;&lt;tr&gt;&lt;td&gt;subject&lt;/td&gt;&lt;td&gt;Array&lt;/td&gt;&lt;/tr&gt;&lt;tr&gt;&lt;td&gt;&lt;br&gt;&lt;/td&gt;&lt;td&gt;&lt;br&gt;&lt;/td&gt;&lt;/tr&gt;&lt;/tbody&gt;&lt;/table&gt;" style="verticalAlign=top;align=left;overflow=fill;html=1;fontFamily=Verdana;" vertex="1" parent="1">
          <mxGeometry x="-80" y="40" width="200" height="200" as="geometry" />
        </mxCell>
        <mxCell id="3plGPukhQeNnbeva1e-n-11" value="&lt;div style=&quot;box-sizing: border-box ; width: 100% ; background: #e4e4e4 ; padding: 2px&quot;&gt;Lesson&lt;/div&gt;&lt;table style=&quot;width: 100% ; font-size: 1em&quot; cellpadding=&quot;2&quot; cellspacing=&quot;0&quot;&gt;&lt;tbody&gt;&lt;tr&gt;&lt;td&gt;_id&lt;/td&gt;&lt;td&gt;uniqueId&lt;/td&gt;&lt;/tr&gt;&lt;tr&gt;&lt;td&gt;lessonName&lt;/td&gt;&lt;td&gt;String&lt;/td&gt;&lt;/tr&gt;&lt;tr&gt;&lt;td&gt;courseId&lt;/td&gt;&lt;td&gt;Couse Id&lt;/td&gt;&lt;/tr&gt;&lt;tr&gt;&lt;td&gt;video&lt;/td&gt;&lt;td&gt;Array&lt;/td&gt;&lt;/tr&gt;&lt;tr&gt;&lt;td&gt;createdAt&lt;/td&gt;&lt;td&gt;Date&lt;/td&gt;&lt;/tr&gt;&lt;/tbody&gt;&lt;/table&gt;" style="verticalAlign=top;align=left;overflow=fill;html=1;fontFamily=Verdana;" vertex="1" parent="1">
          <mxGeometry x="240" y="320" width="200" height="200" as="geometry" />
        </mxCell>
        <mxCell id="3plGPukhQeNnbeva1e-n-12" value="&lt;div style=&quot;box-sizing: border-box ; width: 100% ; background: #e4e4e4 ; padding: 2px&quot;&gt;Message&lt;/div&gt;&lt;table style=&quot;width: 100% ; font-size: 1em&quot; cellpadding=&quot;2&quot; cellspacing=&quot;0&quot;&gt;&lt;tbody&gt;&lt;tr&gt;&lt;td&gt;_id&lt;/td&gt;&lt;td&gt;uniqueId&lt;/td&gt;&lt;/tr&gt;&lt;tr&gt;&lt;td&gt;lessonId&lt;/td&gt;&lt;td&gt;Lesson Id&lt;/td&gt;&lt;/tr&gt;&lt;tr&gt;&lt;td&gt;sender&lt;/td&gt;&lt;td&gt;User Id&lt;/td&gt;&lt;/tr&gt;&lt;tr&gt;&lt;td&gt;content&lt;/td&gt;&lt;td&gt;String&lt;/td&gt;&lt;/tr&gt;&lt;tr&gt;&lt;td&gt;createAt&lt;/td&gt;&lt;td&gt;Date&lt;/td&gt;&lt;/tr&gt;&lt;/tbody&gt;&lt;/table&gt;" style="verticalAlign=top;align=left;overflow=fill;html=1;fontFamily=Verdana;" vertex="1" parent="1">
          <mxGeometry x="-80" y="320" width="200" height="200" as="geometry" />
        </mxCell>
        <mxCell id="3plGPukhQeNnbeva1e-n-13" value="" style="endArrow=classic;html=1;fontFamily=Verdana;entryX=0.001;entryY=0.325;entryDx=0;entryDy=0;entryPerimeter=0;exitX=0.994;exitY=0.142;exitDx=0;exitDy=0;exitPerimeter=0;" edge="1" parent="1" source="2ed32ef02a7f4228-1" target="3plGPukhQeNnbeva1e-n-9">
          <mxGeometry width="50" height="50" relative="1" as="geometry">
            <mxPoint x="-350" y="240" as="sourcePoint" />
            <mxPoint x="-300" y="190" as="targetPoint" />
            <Array as="points">
              <mxPoint x="-160" y="68" />
              <mxPoint x="-160" y="105" />
            </Array>
          </mxGeometry>
        </mxCell>
        <mxCell id="3plGPukhQeNnbeva1e-n-19" value="" style="endArrow=classic;html=1;fontFamily=Verdana;exitX=1;exitY=0.111;exitDx=0;exitDy=0;exitPerimeter=0;entryX=0;entryY=0.318;entryDx=0;entryDy=0;entryPerimeter=0;" edge="1" parent="1" source="3plGPukhQeNnbeva1e-n-9" target="2ed32ef02a7f4228-5">
          <mxGeometry width="50" height="50" relative="1" as="geometry">
            <mxPoint x="130" y="60" as="sourcePoint" />
            <mxPoint x="130" y="340" as="targetPoint" />
            <Array as="points">
              <mxPoint x="170" y="62" />
              <mxPoint x="170" y="104" />
            </Array>
          </mxGeometry>
        </mxCell>
        <mxCell id="3plGPukhQeNnbeva1e-n-30" value="" style="endArrow=classic;html=1;fontFamily=Verdana;exitX=-0.01;exitY=0.125;exitDx=0;exitDy=0;exitPerimeter=0;entryX=1.004;entryY=0.226;entryDx=0;entryDy=0;entryPerimeter=0;" edge="1" parent="1" source="3plGPukhQeNnbeva1e-n-11" target="3plGPukhQeNnbeva1e-n-12">
          <mxGeometry width="50" height="50" relative="1" as="geometry">
            <mxPoint x="110" y="480" as="sourcePoint" />
            <mxPoint x="160" y="430" as="targetPoint" />
            <Array as="points">
              <mxPoint x="160" y="345" />
              <mxPoint x="160" y="365" />
            </Array>
          </mxGeometry>
        </mxCell>
        <mxCell id="3plGPukhQeNnbeva1e-n-31" value="" style="endArrow=classic;html=1;fontFamily=Verdana;entryX=0;entryY=0.5;entryDx=0;entryDy=0;" edge="1" parent="1" target="2ed32ef02a7f4228-12">
          <mxGeometry width="50" height="50" relative="1" as="geometry">
            <mxPoint x="440" y="66" as="sourcePoint" />
            <mxPoint x="260" y="190" as="targetPoint" />
            <Array as="points">
              <mxPoint x="480" y="66" />
              <mxPoint x="480" y="140" />
            </Array>
          </mxGeometry>
        </mxCell>
        <mxCell id="3plGPukhQeNnbeva1e-n-32" value="" style="endArrow=classic;html=1;fontFamily=Verdana;entryX=0;entryY=0.25;entryDx=0;entryDy=0;exitX=-0.002;exitY=0.146;exitDx=0;exitDy=0;exitPerimeter=0;" edge="1" parent="1" source="2ed32ef02a7f4228-1" target="2ed32ef02a7f4228-12">
          <mxGeometry width="50" height="50" relative="1" as="geometry">
            <mxPoint x="-391.4000000000001" y="79.39999999999998" as="sourcePoint" />
            <mxPoint x="248" y="185" as="targetPoint" />
            <Array as="points">
              <mxPoint x="-440" y="69" />
              <mxPoint x="-440" y="20" />
              <mxPoint x="520" y="20" />
              <mxPoint x="520" y="90" />
            </Array>
          </mxGeometry>
        </mxCell>
        <mxCell id="3plGPukhQeNnbeva1e-n-33" value="" style="endArrow=classic;html=1;fontFamily=Verdana;entryX=-0.01;entryY=0.315;entryDx=0;entryDy=0;entryPerimeter=0;" edge="1" parent="1" target="3plGPukhQeNnbeva1e-n-12">
          <mxGeometry width="50" height="50" relative="1" as="geometry">
            <mxPoint x="-400" y="69" as="sourcePoint" />
            <mxPoint x="-440" y="220" as="targetPoint" />
            <Array as="points">
              <mxPoint x="-440" y="69" />
              <mxPoint x="-440" y="383" />
            </Array>
          </mxGeometry>
        </mxCell>
        <mxCell id="3plGPukhQeNnbeva1e-n-34" value="" style="endArrow=classic;html=1;fontFamily=Verdana;exitX=-0.006;exitY=0.144;exitDx=0;exitDy=0;exitPerimeter=0;entryX=-0.009;entryY=0.683;entryDx=0;entryDy=0;entryPerimeter=0;" edge="1" parent="1" source="2ed32ef02a7f4228-1" target="2ed32ef02a7f4228-5">
          <mxGeometry width="50" height="50" relative="1" as="geometry">
            <mxPoint x="-390" y="79" as="sourcePoint" />
            <mxPoint x="200" y="280" as="targetPoint" />
            <Array as="points">
              <mxPoint x="-440" y="69" />
              <mxPoint x="-440" y="280" />
              <mxPoint x="200" y="280" />
              <mxPoint x="200" y="177" />
            </Array>
          </mxGeometry>
        </mxCell>
        <mxCell id="3plGPukhQeNnbeva1e-n-35" value="" style="endArrow=classic;html=1;fontFamily=Verdana;" edge="1" parent="1">
          <mxGeometry width="50" height="50" relative="1" as="geometry">
            <mxPoint x="440" y="65" as="sourcePoint" />
            <mxPoint x="440" y="380" as="targetPoint" />
            <Array as="points">
              <mxPoint x="480" y="65" />
              <mxPoint x="480" y="380" />
            </Array>
          </mxGeometry>
        </mxCell>
      </root>
    </mxGraphModel>
  </diagram>
</mxfile>
